HIERARCHY
ROOT hip
{
	OFFSET 0.000000 0.000000 0.000000 
	CHANNELS 6 Xposition Yposition Zposition Xrotation Zrotation Yrotation
	JOINT abdomen
	{
		OFFSET 0.000000 3.402643 0.000000 
		CHANNELS 3 Xrotation Zrotation Yrotation
		JOINT chest
		{
			OFFSET 0.000000 8.438565 -0.680529 
			CHANNELS 3 Xrotation Zrotation Yrotation
			JOINT neck
			{
				OFFSET 0.000000 10.207942 -0.272212 
				CHANNELS 3 Xrotation Zrotation Yrotation
				JOINT head
				{
					OFFSET 0.000000 3.130431 0.000000 
					CHANNELS 3 Xrotation Zrotation Yrotation
					End Site
					{
						OFFSET 0.000000 3.130435 0.000000 
					}
				}
			}
			JOINT lCollar
			{
				OFFSET 3.470700 6.669187 -0.816635 
				CHANNELS 3 Yrotation Zrotation Xrotation
				JOINT lShldr
				{
					OFFSET 3.198488 0.000000 0.000000 
					CHANNELS 3 Zrotation Yrotation Xrotation
					JOINT lForeArm
					{
						OFFSET 10.139888 0.000000 0.000000 
						CHANNELS 3 Yrotation Zrotation Xrotation
						JOINT lHand
						{
							OFFSET 8.370511 0.000000 0.000000 
							CHANNELS 3 Zrotation Yrotation Xrotation
							End Site
							{
								OFFSET 4.083176 0.000000 0.000000 
							}
						}
					}
				}
			}
			JOINT rCollar
			{
				OFFSET -3.470700 6.669187 -0.816635 
				CHANNELS 3 Yrotation Zrotation Xrotation
				JOINT rShldr
				{
					OFFSET -3.198488 0.000000 0.000000 
					CHANNELS 3 Zrotation Yrotation Xrotation
					JOINT rForeArm
					{
						OFFSET -10.139888 0.000000 0.000000 
						CHANNELS 3 Yrotation Zrotation Xrotation
						JOINT rHand
						{
							OFFSET -8.370511 0.000000 0.000000 
							CHANNELS 3 Zrotation Yrotation Xrotation
							End Site
							{
								OFFSET -4.083176 0.000000 0.000000 
							}
						}
					}
				}
			}
		}
	}
	JOINT lThigh
	{
		OFFSET 5.308129 -1.633274 1.361059 
		CHANNELS 3 Xrotation Zrotation Yrotation
		JOINT lShin
		{
			OFFSET -2.041588 -20.007561 0.000000 
			CHANNELS 3 Xrotation Zrotation Yrotation
			JOINT lFoot
			{
				OFFSET 0.000000 -19.190928 -1.224953 
				CHANNELS 3 Xrotation Yrotation Zrotation
				End Site
				{
					OFFSET 0.000000 -2.449906 4.627600 
				}
			}
		}
	}
	JOINT rThigh
	{
		OFFSET -5.308129 -1.633274 1.361059 
		CHANNELS 3 Xrotation Zrotation Yrotation
		JOINT rShin
		{
			OFFSET 2.041588 -20.007561 0.000000 
			CHANNELS 3 Xrotation Zrotation Yrotation
			JOINT rFoot
			{
				OFFSET 0.000000 -19.190928 -1.224953 
				CHANNELS 3 Xrotation Yrotation Zrotation
				End Site
				{
					OFFSET 0.000000 -2.449906 4.627600 
				}
			}
		}
	}
}
MOTION
Frames: 9
Frame Time: 0.033333
3.808887 51.826683 -5.153522 36.347656 14.619141 -20.173317 20.177000 -11.988697 -4.360673 7.939456 0.468750 11.611392 37.519894 -7.892175 -0.785453 -26.523438 4.570313 16.474611 2.000000 -2.000000 0.000000 -36.708984 -13.271484 13.066405 -46.147419 17.580984 3.013471 15.113161 14.701981 -62.346508 -2.000000 2.000000 0.000000 15.058593 26.210938 92.353516 -33.914001 -47.551952 -64.832100 17.445524 -20.858011 -78.948601 -53.710312 14.638598 14.019704 34.834385 6.611901 0.070473 -1.479566 -10.144356 -11.974308 -61.022602 -9.960173 1.016027 55.321159 5.909724 5.429669 4.455716 0.341737 11.986697 
4.056770 51.323105 -5.114181 36.230469 13.310547 -21.152344 20.177000 -11.988697 -4.360673 8.896486 0.292969 11.669971 37.172199 -8.182356 -0.809375 -26.777346 4.707031 17.109379 2.000000 -2.000000 0.000000 -32.119141 -14.228516 10.712891 -45.735275 20.712605 2.373043 15.914808 14.430883 -62.217758 -2.000000 2.000000 0.000000 14.951171 27.900391 92.138672 -31.877083 -45.120182 -64.877075 17.033573 -21.817223 -78.731483 -52.502907 15.776935 14.681162 31.602905 7.272256 0.439706 2.176267 -11.358828 -7.787966 -61.822376 -9.218419 1.308955 58.450306 7.528971 6.088885 3.766896 1.303234 15.427720 
4.269029 50.832489 -5.133251 35.742188 12.363282 -21.443222 20.177000 -11.988697 -4.360673 9.804688 -0.527344 11.591708 36.366104 -7.460990 -0.741985 -26.621096 4.550781 17.460939 2.000000 -2.000000 0.000000 -28.222656 -17.441408 8.825198 -46.631985 22.824120 3.776471 14.652631 14.040935 -62.276245 -2.000000 2.000000 0.000000 16.679688 29.072266 92.480469 -29.142696 -43.023540 -63.950180 16.820730 -23.278402 -78.417419 -52.724171 16.933334 14.992331 33.231609 7.857444 0.462659 2.844076 -12.216578 -5.253089 -61.949474 -8.466541 1.552890 59.897289 8.075921 6.322820 2.724087 1.753875 15.709155 
4.382437 50.553253 -5.250044 35.976563 11.806640 -20.037066 20.177000 -11.988697 -4.360673 10.185547 -1.503906 11.435289 35.858669 -6.901371 -0.699444 -26.044926 3.681640 17.792971 2.000000 -2.000000 0.000000 -25.361330 -24.804688 8.007812 -50.443260 23.793583 8.355840 11.468623 13.512410 -62.433163 -2.000000 2.000000 0.000000 21.210939 28.681641 94.321091 -25.990808 -41.468323 -64.691696 15.819381 -24.745010 -77.966171 -54.748974 17.778618 14.750110 33.716145 7.292429 0.298429 3.336608 -14.060746 -5.231064 -62.725304 -7.831388 1.786567 59.335129 8.292470 6.360741 0.834831 -1.975851 8.726669 
4.463618 50.645691 -5.224921 36.171875 11.708984 -18.289034 20.177000 -11.988697 -4.360673 10.410157 -1.865234 11.386401 36.353359 -7.090643 -0.710330 -26.025391 2.480469 17.597658 2.000000 -2.000000 0.000000 -25.244141 -31.572266 8.852309 -54.370415 24.300892 15.269991 9.562659 12.780423 -62.383118 -2.000000 2.000000 0.000000 23.691406 26.494141 95.322266 -24.622227 -42.752357 -63.397564 15.840191 -23.758863 -78.105080 -56.096710 16.646372 14.023784 32.674240 7.215118 0.364748 5.156546 -14.865846 -5.635430 -63.614155 -8.319440 1.676136 59.175755 8.165205 6.327395 0.439260 -4.796187 5.599754 
4.626779 50.835480 -5.088830 35.761719 11.318358 -17.878942 20.177000 -11.988697 -4.360673 11.015628 -2.001953 11.415674 36.585926 -7.711102 -0.763431 -26.220705 1.523437 17.519533 2.000000 -2.000000 0.000000 -25.957031 -35.771484 9.711090 -58.691994 24.421408 25.523415 8.196084 11.645997 -62.141361 -2.000000 2.000000 0.000000 26.181643 25.078127 96.410385 -25.805876 -46.575569 -56.175339 17.484802 -20.370380 -78.745392 -56.035435 15.859768 13.793777 31.633850 7.457556 0.479854 6.062678 -14.884669 -4.397394 -64.197495 -8.544651 1.666244 59.573662 7.735271 6.236032 2.094679 -4.621234 7.093095 
4.981003 50.971966 -4.836309 34.375000 10.527343 -19.882813 20.177000 -11.988697 -4.360673 11.708985 -2.255860 11.435163 35.529449 -7.799448 -0.759957 -26.132814 0.810547 17.705080 2.000000 -2.000000 0.000000 -29.013674 -36.054688 11.298828 -62.140980 23.490902 37.590641 6.039788 9.727739 -61.920139 -2.000000 2.000000 0.000000 29.970699 23.681641 97.998047 -30.382509 -55.344425 -38.550819 18.514347 -16.161131 -79.155701 -54.079178 16.726925 14.587420 29.552862 7.111185 0.500136 6.592481 -15.470267 -1.493747 -64.433937 -8.407316 1.705836 60.056461 7.608695 6.260764 5.316008 -0.667453 11.245131 
5.245991 50.919205 -4.643663 33.300781 9.970703 -22.322527 20.177000 -11.988697 -4.360673 11.289063 -2.343750 11.376554 34.438545 -7.127799 -0.694837 -25.771486 0.732422 17.978481 2.000000 -2.000000 0.000000 -32.509766 -32.167969 12.660819 -60.548187 21.757004 39.155781 5.072889 10.152767 -61.988953 -2.000000 2.000000 0.000000 31.855469 21.689455 98.997749 -32.905945 -60.645367 -29.299335 18.277119 -15.589876 -78.998741 -52.634628 18.045732 15.385920 28.434702 6.770778 0.488254 7.352064 -15.959043 0.907275 -64.361473 -7.860822 1.849751 60.111122 7.686384 6.273068 6.474368 2.308058 11.179428 
5.392818 50.751003 -4.447820 32.265621 9.570313 -24.999388 20.177000 -11.988697 -4.360673 9.892577 -2.050781 11.298828 33.979744 -7.118145 -0.696296 -25.527346 1.308594 18.554691 2.000000 -2.000000 0.000000 -34.648441 -24.160154 12.744140 -56.356075 19.051340 34.353600 5.542553 12.664708 -62.167168 -2.000000 2.000000 0.000000 32.285160 19.511719 100.198578 -33.821171 -60.869442 -29.788572 18.075470 -16.044981 -78.957680 -51.539379 19.518887 16.151348 28.099741 6.740842 0.483924 7.997633 -15.902579 2.706184 -63.870068 -6.513555 2.247731 60.823997 7.177408 6.230534 5.969958 3.690703 7.661299 
